# xmcd CD database file
#
# Track frame offsets:
#	150
#	25803
#	51841
#	82672
#	107278
#	137356
#	165973
#	174127
#	198264
#
# Disc length: 3043 seconds
#
# Revision: 0
# Processed by: cddbd v1.5.1PL0 Copyright (c) Steve Scherf et al.
# Submitted via: CDex 1.50beta8
#
DISCID=540be109
DTITLE=Lasse Lindgren - Sunburst
DYEAR=2005
DGENRE=Jazz
TTITLE0=Sunburst
TTITLE1=Speedy
TTITLE2=Fear Not
TTITLE3=Carefree
TTITLE4=So Long
TTITLE5=Wild Bill
TTITLE6=Greek Mythology Suite - Inside the Ancient Temple
TTITLE7=Greek Mythology Suite - Poseidon
TTITLE8=Greek Mythology Suite - Siren Call
EXTD=YEAR: 2005
EXTT0=
EXTT1=
EXTT2=
EXTT3=
EXTT4=
EXTT5=
EXTT6=
EXTT7=
EXTT8=
PLAYORDER=
